<svg width="706" height="306" viewBox="0 0 706 306" fill="none" xmlns="http://www.w3.org/2000/svg">
<g filter="url(#filter0_d_301_2)">
<path d="M356.9 47.6L321.2 216.7H370.8L380.6 170.5H404.6C453.1 170.5 483.4 143.3 483.4 100.2C483.4 68.7 461 47.6 421.1 47.6H356.9ZM398.7 85.1H411.7C425.9 85.1 433.6 91.3 433.6 104.7C433.6 121.2 422.4 133.8 405 133.8H388.2L398.7 85.1ZM443.5 216.7H490L517.5 87.3H471L443.5 216.7ZM500.6 79.7C514.1 79.7 524.3 70 524.3 57.2C524.3 44.4 514.1 34.7 500.6 34.7C487.1 34.7 476.9 44.4 476.9 57.2C477 69.9 487.2 79.7 500.6 79.7ZM542 218.5C549.3 218.5 557.5 217.8 561 216.9L568 185C566.7 185.5 564.5 185.7 559.6 185.7C548.9 185.7 544.6 183 544.6 176.3C544.6 174.9 544.8 172.3 545.2 171.1L555 125H580.2L587.5 91H562.2L568.8 60.2H522.4L515.8 91H496.6L489.1 125H508.4L498 175C496.8 180.9 496.6 186 496.6 189.3C496.6 208.7 513.2 218.5 542 218.5ZM564.1 127.6C564.1 145.4 575.5 157.6 599.6 165.8L611.3 169.8C622.9 173.8 626.5 176.4 626.5 180.8C626.5 186.2 621.5 189.4 612.4 189.4C600.6 189.4 592.7 183.4 592.2 174.8H548.4C549.5 202.6 573.6 220 611.2 220C648.3 220 672.4 202.5 672.4 175.5C672.4 158.2 663 148.3 638.2 139.9L623.7 135C611.4 130.8 608 128.4 608 123.8C608 118.2 613.6 114.7 622.5 114.7C632.6 114.7 639.4 120.1 639.8 127.8H681.3C680.4 102 656.7 84.2 623.2 84.2C587.3 84 564.1 101.1 564.1 127.6Z" fill="#394B5E"/>
<path d="M320.8 235.9H325.8C328.6 235.9 330.3 237.5 330.3 240.1C330.3 242.8 328.7 244.3 325.9 244.3H320.8V235.9ZM320.8 247.2H325.8L330.5 256.1H334.7L329.5 246.6C332.3 245.6 334 243.1 334 240C334 235.7 331 232.9 326.2 232.9H317.2V256.1H320.8V247.2ZM344 241.7C346.4 241.7 348.1 243.5 348.2 246.1H339.7C339.9 243.5 341.6 241.7 344 241.7ZM348.2 251.2C347.7 252.7 346.3 253.7 344.3 253.7C341.5 253.7 339.7 251.8 339.7 248.8V248.6H351.7V247.4C351.7 242.3 348.8 238.9 344.1 238.9C339.3 238.9 336.3 242.4 336.3 247.8C336.3 253.1 339.3 256.5 344.3 256.5C348.2 256.5 351.1 254.3 351.6 251.2H348.2ZM363.2 238.9C360.8 238.9 358.8 240.1 357.8 242.1H357.7V239.2H354.3V261.8H357.8V253.4H357.9C358.9 255.3 360.8 256.5 363.2 256.5C367.5 256.5 370.3 253.1 370.3 247.7C370.3 242.3 367.5 238.9 363.2 238.9ZM362.3 253.5C359.6 253.5 357.9 251.2 357.9 247.7C357.9 244.2 359.7 241.9 362.3 241.9C365.1 241.9 366.8 244.2 366.8 247.7C366.8 251.2 365.1 253.5 362.3 253.5ZM379 253.7C377.1 253.7 375.9 252.7 375.9 251.3C375.9 249.8 377.1 248.9 379.2 248.8L383.4 248.5V249.8C383.3 252 381.4 253.7 379 253.7ZM378 256.4C380.2 256.4 382.4 255.2 383.3 253.3H383.4V256.1H386.7V244.4C386.7 241 384.1 238.8 380 238.8C375.8 238.8 373.2 241.1 373 244.1H376.3C376.6 242.6 377.9 241.6 379.9 241.6C382 241.6 383.3 242.7 383.3 244.6V245.9L378.7 246.2C374.7 246.4 372.4 248.2 372.4 251.2C372.4 254.4 374.7 256.4 378 256.4ZM390.3 256.1H393.8V239.1H390.3V256.1ZM392 236.7C393.1 236.7 394 235.8 394 234.7C394 233.6 393.1 232.7 392 232.7C390.9 232.7 390 233.6 390 234.7C390 235.8 390.9 236.7 392 236.7ZM397.3 256.1H400.8V245.9C400.8 243.5 402.2 242 404.4 242C405.1 242 405.7 242.1 406 242.2V239C405.7 239 405.3 238.9 404.8 238.9C402.8 238.9 401.3 240.1 400.7 242.1H400.6V239.2H397.3V256.1ZM437.2 239.2H433.8L430.7 252.5H430.6L427.1 239.2H423.7L420.2 252.5H420.1L417 239.2H413.5L418.2 256.2H421.8L425.3 243.5H425.4L429 256.2H432.6L437.2 239.2ZM439.5 256.1H443V239.1H439.5V256.1ZM441.2 236.7C442.3 236.7 443.2 235.8 443.2 234.7C443.2 233.6 442.3 232.7 441.2 232.7C440.1 232.7 439.2 233.6 439.2 234.7C439.2 235.8 440.1 236.7 441.2 236.7ZM447.5 235.2V239.2H445V242H447.5V251.7C447.5 255 448.8 256.3 452.3 256.3C453.1 256.3 453.8 256.2 454.2 256.1V253.3C454 253.3 453.4 253.4 453.1 253.4C451.7 253.4 451 252.7 451 251.3V242H454.2V239.2H451V235.2H447.5ZM457.2 256.1H460.7V246.3C460.7 243.6 462.3 241.9 464.9 241.9C467.3 241.9 468.6 243.4 468.6 245.9V256.1H472.1V245.2C472.1 241.4 469.9 238.9 466.2 238.9C463.6 238.9 461.8 240 460.8 242H460.7V232.9H457.3V256.1H457.2ZM482.7 256.5C487.6 256.5 490.7 253.2 490.7 247.7C490.7 242.3 487.5 238.9 482.7 238.9C477.9 238.9 474.7 242.2 474.7 247.7C474.7 253.1 477.9 256.5 482.7 256.5ZM482.7 253.6C480 253.6 478.2 251.4 478.2 247.7C478.2 243.9 480 241.8 482.7 241.8C485.4 241.8 487.2 244 487.2 247.7C487.2 251.4 485.5 253.6 482.7 253.6ZM508 239.2H504.5V249.1C504.5 251.7 503 253.5 500.5 253.5C498.1 253.5 496.9 252.1 496.9 249.5V239.2H493.4V250.2C493.4 254.1 495.7 256.5 499.3 256.5C501.9 256.5 503.6 255.4 504.6 253.3H504.7V256.2H508V239.2ZM512.4 235.2V239.2H509.9V242H512.4V251.7C512.4 255 513.7 256.3 517.2 256.3C518 256.3 518.7 256.2 519.1 256.1V253.3C518.9 253.3 518.3 253.4 518 253.4C516.6 253.4 515.9 252.7 515.9 251.3V242H519.1V239.2H515.9V235.2H512.4ZM534.7 253.7C532.8 253.7 531.6 252.7 531.6 251.3C531.6 249.8 532.8 248.9 534.9 248.8L539.1 248.5V249.8C539 252 537.1 253.7 534.7 253.7ZM533.7 256.4C535.9 256.4 538.1 255.2 539 253.3H539.1V256.1H542.4V244.4C542.4 241 539.8 238.8 535.7 238.8C531.5 238.8 528.9 241.1 528.7 244.1H532C532.3 242.6 533.6 241.6 535.6 241.6C537.7 241.6 539 242.7 539 244.6V245.9L534.4 246.2C530.4 246.4 528.1 248.2 528.1 251.2C528.1 254.4 530.4 256.4 533.7 256.4ZM545.8 256.1H549.3V246.2C549.3 243.6 550.9 241.8 553.3 241.8C555.7 241.8 556.9 243.2 556.9 245.7V256.1H560.4V245.1C560.4 241.2 558.3 238.8 554.5 238.8C551.9 238.8 550.1 240 549.2 241.9H549.1V239.1H545.8V256.1ZM565.5 262.5C569 262.5 570.7 261.2 572.1 257.1L578.5 239.3H574.8L570.5 253.1L566.2 239.3H562.4L568.5 256.3L568.2 257.3C567.7 259 566.8 259.7 565.2 259.7C564.9 259.7 564.3 259.7 564.1 259.6V262.4C564.3 262.4 565.2 262.5 565.5 262.5ZM596.1 238.9C593.7 238.9 591.7 240.1 590.7 242.1H590.6V239.2H587.3V261.8H590.8V253.4H590.9C591.9 255.3 593.8 256.5 596.2 256.5C600.5 256.5 603.3 253.1 603.3 247.7C603.3 242.3 600.4 238.9 596.1 238.9ZM595.2 253.5C592.5 253.5 590.8 251.2 590.8 247.7C590.8 244.2 592.6 241.9 595.2 241.9C598 241.9 599.7 244.2 599.7 247.7C599.7 251.2 597.9 253.5 595.2 253.5ZM605.9 256.1H609.4V245.9C609.4 243.5 610.8 242 613 242C613.7 242 614.3 242.1 614.6 242.2V239C614.3 239 613.9 238.9 613.4 238.9C611.4 238.9 609.9 240.1 609.3 242.1H609.2V239.2H605.9V256.1ZM623.3 256.5C628.2 256.5 631.3 253.2 631.3 247.7C631.3 242.3 628.1 238.9 623.3 238.9C618.5 238.9 615.3 242.2 615.3 247.7C615.2 253.1 618.4 256.5 623.3 256.5ZM623.3 253.6C620.6 253.6 618.8 251.4 618.8 247.7C618.8 243.9 620.6 241.8 623.3 241.8C626 241.8 627.8 244 627.8 247.7C627.8 251.4 626 253.6 623.3 253.6ZM643 256.4C647.3 256.4 650.1 253 650.1 247.6C650.1 242.2 647.3 238.9 643 238.9C640.6 238.9 638.7 240.1 637.7 242.1H637.6V232.9H634.1V256.1H637.5V253.2H637.6C638.6 255.2 640.6 256.4 643 256.4ZM642.1 241.8C644.8 241.8 646.5 244.1 646.5 247.6C646.5 251.2 644.8 253.4 642.1 253.4C639.5 253.4 637.6 251.1 637.6 247.6C637.6 244.2 639.5 241.8 642.1 241.8ZM653 256.1H656.5V232.8H653V256.1ZM667.1 241.7C669.5 241.7 671.2 243.5 671.3 246.1H662.8C663 243.5 664.7 241.7 667.1 241.7ZM671.3 251.2C670.8 252.7 669.4 253.7 667.4 253.7C664.6 253.7 662.8 251.8 662.8 248.8V248.6H674.8V247.4C674.8 242.3 671.9 238.9 667.2 238.9C662.4 238.9 659.4 242.4 659.4 247.8C659.4 253.1 662.4 256.5 667.4 256.5C671.3 256.5 674.2 254.3 674.7 251.2H671.3ZM677.5 256.1H681V245.6C681 243.4 682.5 241.8 684.5 241.8C686.5 241.8 687.7 243 687.7 245V256.1H691.1V245.5C691.1 243.4 692.5 241.8 694.6 241.8C696.7 241.8 697.8 243.1 697.8 245.2V256.1H701.3V244.5C701.3 241.1 699.1 238.9 695.8 238.9C693.4 238.9 691.4 240.2 690.5 242.2H690.4C689.7 240.1 688 238.9 685.7 238.9C683.4 238.9 681.6 240.2 680.9 242H680.8V239.1H677.5V256.1Z" fill="#ABABAB"/>
<path d="M233.1 297.1H72C34.4 297.1 4 266.6 4 229.1V68C4 30.4 34.5 0 72 0H233.1C270.7 0 301.1 30.5 301.1 68V229.1C301.2 266.7 270.7 297.1 233.1 297.1Z" fill="url(#paint0_linear_301_2)"/>
<path d="M222.6 123.4L200.9 149.6C200.3 150.4 199.3 150.8 198.4 150.8H164.6C163.3 150.8 162.1 151.6 161.6 152.9L151.2 181.6C150.8 182.8 149.6 183.6 148.3 183.6H127C125 183.6 123.1 184.5 121.8 186.1L67.4 248.1C66.7 249 65.2 248.2 65.6 247.1L84.3 199.4L90 183.6L100.3 155.2C101.3 152.5 103.8 150.8 106.7 150.8H155.9C157.2 150.8 158.4 150 158.9 148.7L168.5 122.2C169.3 120.1 167.7 118 165.5 118H113.9L124.2 89.6C125.2 86.9 127.7 85.1 130.6 85.1H182.5L172.1 113.7C171.3 115.8 172.9 117.9 175.1 117.9H220.1C222.8 118 224.3 121.2 222.6 123.4Z" fill="#394B5E"/>
<path d="M238.9 91L216.6 118H175.1C172.9 118 171.4 115.8 172.1 113.8L182.5 85.2H236.2C239.1 85.2 240.8 88.7 238.9 91Z" fill="url(#paint1_linear_301_2)"/>
<path d="M193.5 150.8L167.4 182.3C166.7 183.1 165.7 183.6 164.7 183.6H150.5L161.7 152.9C162.2 151.7 163.3 150.8 164.7 150.8H193.5Z" fill="url(#paint2_linear_301_2)"/>
<path d="M168.6 122.2L159 148.7C158.5 150 157.4 150.8 156 150.8H113.9C111.7 150.8 110.2 148.6 110.9 146.6L120.5 120.1C121 118.8 122.1 118 123.5 118H165.6C167.8 118 169.3 120.2 168.6 122.2Z" fill="url(#paint3_linear_301_2)"/>
</g>
<defs>
<filter id="filter0_d_301_2" x="0" y="0" width="705.3" height="305.1" filterUnits="userSpaceOnUse" color-interpolation-filters="sRGB">
<feFlood flood-opacity="0" result="BackgroundImageFix"/>
<feColorMatrix in="SourceAlpha" type="matrix" values="0 0 0 0 0 0 0 0 0 0 0 0 0 0 0 0 0 0 127 0" result="hardAlpha"/>
<feOffset dy="4"/>
<feGaussianBlur stdDeviation="2"/>
<feComposite in2="hardAlpha" operator="out"/>
<feColorMatrix type="matrix" values="0 0 0 0 0 0 0 0 0 0 0 0 0 0 0 0 0 0 0.25 0"/>
<feBlend mode="normal" in2="BackgroundImageFix" result="effect1_dropShadow_301_2"/>
<feBlend mode="normal" in="SourceGraphic" in2="effect1_dropShadow_301_2" result="shape"/>
</filter>
<linearGradient id="paint0_linear_301_2" x1="152.588" y1="297.148" x2="152.588" y2="-0.018297" gradientUnits="userSpaceOnUse">
<stop stop-color="#C05047"/>
<stop offset="1" stop-color="#C96461"/>
</linearGradient>
<linearGradient id="paint1_linear_301_2" x1="171.831" y1="101.572" x2="239.677" y2="101.572" gradientUnits="userSpaceOnUse">
<stop stop-color="white"/>
<stop offset="1" stop-color="#B5B5B5"/>
</linearGradient>
<linearGradient id="paint2_linear_301_2" x1="148.208" y1="180.959" x2="189.74" y2="146.28" gradientUnits="userSpaceOnUse">
<stop stop-color="white"/>
<stop offset="1" stop-color="#B5B5B5"/>
</linearGradient>
<linearGradient id="paint3_linear_301_2" x1="115.525" y1="154.582" x2="163.91" y2="114.181" gradientUnits="userSpaceOnUse">
<stop stop-color="white"/>
<stop offset="1" stop-color="#B5B5B5"/>
</linearGradient>
</defs>
</svg>
