<?xml version="1.0" standalone="no"?>
<!DOCTYPE svg PUBLIC "-//W3C//DTD SVG 20010904//EN"
 "http://www.w3.org/TR/2001/REC-SVG-20010904/DTD/svg10.dtd">
<svg version="1.0" xmlns="http://www.w3.org/2000/svg"
 width="344.000000pt" height="344.000000pt" viewBox="0 0 344.000000 344.000000"
 preserveAspectRatio="xMidYMid meet">

<g transform="translate(0.000000,344.000000) scale(0.100000,-0.100000)"
fill="#0095e8" stroke="none">
<path d="M592 2770 c-108 -39 -199 -128 -245 -240 l-22 -55 0 -755 0 -755 22
-55 c47 -113 136 -200 250 -243 57 -22 67 -22 743 -25 730 -3 804 0 897 42 76
35 157 116 196 195 32 66 32 67 35 244 4 197 -2 228 -49 252 -56 29 -127 9
-147 -42 -6 -15 -12 -98 -14 -185 -3 -156 -3 -157 -33 -200 -18 -25 -49 -52
-75 -66 l-44 -22 -702 0 c-496 0 -711 3 -735 11 -43 15 -97 65 -115 106 -12
27 -14 161 -14 742 0 475 3 719 11 738 15 42 79 102 119 113 21 6 308 10 735
10 l701 0 44 -22 c26 -14 57 -41 75 -66 30 -43 30 -44 33 -200 3 -185 5 -196
39 -228 53 -49 151 -21 168 49 4 14 5 105 3 203 -3 178 -3 179 -35 245 -39 80
-120 159 -200 197 l-58 27 -765 2 c-732 2 -767 2 -818 -17z"/>
<path d="M2719 2036 c-23 -11 -24 -18 -27 -109 l-3 -97 -490 0 c-551 0 -547 0
-576 -67 -13 -33 -14 -43 -2 -78 26 -76 17 -75 577 -75 l492 0 0 -93 c0 -161
17 -160 282 23 111 77 206 147 211 156 21 37 -2 60 -205 199 -111 77 -209 143
-219 147 -9 3 -27 1 -40 -6z"/>
</g>
</svg>
